Coordinates
version=1
nRows=49
nColumns=12
inDegrees=yes

Units are S.I. units (second, meters, Newtons, ...)
Angles are in degrees

endheader
time	SC_y	SC_z	SC_x	AC_y	AC_z	AC_x	GH_y	GH_z	GH_yy	EL_x	PS_y
       0.0              -40.12          25.86          20.67          49.68          1.101          -11.7         -126.7         -6.061         -95.62          96.89          51.91
   0.02521              -40.12          25.86          20.67          49.68          1.102         -11.69         -126.7         -6.052          -95.6          96.89           51.9
   0.05043              -40.12          25.86          20.68          49.68          1.104         -11.69         -126.6         -6.042         -95.57           96.9           51.9
   0.07564              -40.12          25.86          20.69          49.68          1.105         -11.68         -126.6         -6.031         -95.55           96.9          51.89
    0.1009              -40.12          25.86           20.7          49.68          1.107         -11.68         -126.5          -6.02         -95.52          96.91          51.88
    0.1261              -40.12          25.87          20.71          49.68          1.108         -11.67         -126.5         -6.008         -95.49          96.91          51.88
    0.1513              -40.11          25.87          20.71          49.67           1.11         -11.67         -126.4         -5.996         -95.46          96.92          51.87
    0.1765              -40.11          25.87          20.72          49.67          1.112         -11.66         -126.4         -5.982         -95.42          96.92          51.86
    0.2017              -40.11          25.88          20.73          49.67          1.114         -11.66         -126.3         -5.967         -95.39          96.93          51.85
    0.2269              -40.11          25.88          20.75          49.67          1.116         -11.65         -126.2         -5.952         -95.35          96.94          51.85
    0.2521              -40.11          25.88          20.76          49.67          1.119         -11.64         -126.2         -5.935         -95.31          96.94          51.84
    0.2774              -40.11          25.89          20.77          49.66          1.121         -11.64         -126.1         -5.916         -95.26          96.95          51.83
    0.3026              -40.11          25.89          20.78          49.66          1.124         -11.63         -126.0         -5.897         -95.21          96.96          51.81
    0.3278              -40.11          25.89           20.8          49.66          1.127         -11.62         -125.9         -5.876         -95.16          96.97           51.8
     0.353              -40.11           25.9          20.82          49.66           1.13         -11.61         -125.8         -5.853          -95.1          96.98          51.79
    0.3782              -40.11           25.9          20.83          49.65          1.133          -11.6         -125.7         -5.828         -95.04          96.99          51.78
    0.4034              -40.11          25.91          20.85          49.65          1.137         -11.59         -125.5         -5.801         -94.98           97.0          51.76
    0.4287              -40.11          25.91          20.87          49.65          1.141         -11.58         -125.4         -5.772          -94.9          97.01          51.74
    0.4539              -40.11          25.92           20.9          49.64          1.145         -11.57         -125.3          -5.74         -94.83          97.02          51.72
    0.4791              -40.11          25.93          20.92          49.64           1.15         -11.55         -125.1         -5.705         -94.74          97.04           51.7
    0.5043              -40.11          25.94          20.95          49.63          1.155         -11.54         -124.9         -5.666         -94.64          97.06          51.68
    0.5295               -40.1          25.94          20.98          49.63          1.161         -11.52         -124.7         -5.624         -94.54          97.07          51.66
    0.5547               -40.1          25.95          21.01          49.62          1.168          -11.5         -124.5         -5.577         -94.42          97.09          51.63
    0.5799               -40.1          25.96          21.05          49.62          1.175         -11.48         -124.3         -5.525          -94.3          97.11           51.6
    0.6052               -40.1          25.97          21.09          49.61          1.183         -11.46         -124.0         -5.467         -94.15          97.14          51.57
    0.6304               -40.1          25.99          21.14           49.6          1.192         -11.43         -123.7         -5.403         -93.99          97.17          51.53
    0.6556               -40.1           26.0          21.19          49.59          1.202          -11.4         -123.4         -5.331         -93.82           97.2          51.49
    0.6808              -40.09          26.02          21.25          49.58          1.213         -11.37         -123.0          -5.25         -93.62          97.23          51.44
     0.706              -40.09          26.04          21.31          49.57          1.225         -11.33         -122.6         -5.158         -93.39          97.27          51.39
    0.7312              -40.09          26.06          21.39          49.56           1.24         -11.29         -122.1         -5.054         -93.13          97.31          51.33
    0.7564              -40.09          26.08          21.47          49.54          1.256         -11.24         -121.6         -4.935         -92.84          97.36          51.27
    0.7817              -40.08          26.11          21.57          49.52          1.275         -11.19         -121.0         -4.798          -92.5          97.42          51.19
    0.8069              -40.08          26.14          21.68           49.5          1.297         -11.13         -120.3         -4.641         -92.11          97.49           51.1
    0.8321              -40.07          26.18          21.81          49.48          1.322         -11.05         -119.4         -4.458         -91.66          97.56          50.99
    0.8573              -40.07          26.22          21.97          49.45          1.351         -10.97         -118.5         -4.244         -91.13          97.65          50.87
    0.8825              -40.06          26.27          22.15          49.42          1.386         -10.87         -117.3         -3.992         -90.51          97.76          50.73
    0.9077              -40.05          26.33          22.36          49.38          1.427         -10.75         -115.9         -3.692         -89.77          97.88          50.56
    0.9329              -40.04           26.4          22.62          49.34          1.477          -10.6         -114.3         -3.332         -88.88          98.04          50.35
    0.9582              -40.03          26.49          22.93          49.28          1.537         -10.43         -112.3         -2.897         -87.81          98.22           50.1
    0.9834              -40.01          26.59          23.31          49.22           1.61         -10.21         -109.9         -2.366          -86.5          98.44           49.8
     1.009               -40.0          26.72          23.78          49.13            1.7         -9.952         -106.9          -1.71         -84.88          98.72          49.42
     1.034              -39.97          26.89          24.36          49.03          1.812         -9.624         -103.2        -0.8928         -82.86          99.06          48.96
     1.059              -39.94          27.09           25.1           48.9          1.954         -9.211         -98.52         0.1372         -80.32          99.49          48.37
     1.084              -39.91          27.35          26.03          48.73          2.134         -8.687         -92.56          1.447         -77.09          100.0          47.62
     1.109              -39.86          27.69          27.23          48.52          2.365         -8.015         -84.93          3.122         -72.96          100.7          46.67
     1.135               -39.8          28.12          28.77          48.25          2.661         -7.153         -75.14          5.273         -67.65          101.6          45.44
      1.16              -39.72          28.67          30.73           47.9          3.039         -6.052         -62.64           8.02         -60.87          102.8          43.87
     1.185              -39.63          29.35           33.2          47.47          3.514         -4.668         -46.92          11.47         -52.34          104.3           41.9
      1.21              -39.51          30.19          36.21          46.93          4.094         -2.981         -27.76          15.68         -41.96          106.0          39.49
